<svg xmlns="http://www.w3.org/2000/svg" width="24" height="24" fill="none"><mask id="a" width="24" height="24" x="0" y="0" maskUnits="userSpaceOnUse" style="mask-type:alpha"><path fill="#D9D9D9" d="M0 0h24v24H0z"/></mask><g fill="#000" mask="url(#a)"><path fill-rule="evenodd" d="M12 2a1 1 0 0 1 1 1v1c-.628.835-1 1.874-1 3s.372 2.165 1 3v.264q.22.13.412.324.194.193.324.412h.263c.836.628 1.875 1 3.001 1a4.98 4.98 0 0 0 3-1h1a1 1 0 1 1 0 2h-3.075q-.286 1.86-1.675 3.25T13 17.925V21a1 1 0 1 1-2 0v-3.075q-1.86-.286-3.25-1.675T6.075 13H3a1 1 0 1 1 0-2h3.075Q6.36 9.14 7.75 7.75T11 6.075V3a1 1 0 0 1 1-1M9.175 9.175Q9.977 8.373 11 8.118v2.146a2 2 0 0 0-.412.324 2 2 0 0 0-.324.412H8.118q.255-1.023 1.057-1.825m1.412 4.237q.194.194.413.324v2.146q-1.023-.255-1.825-1.057T8.118 13h2.146q.13.22.324.412m2.413.324v2.146q1.023-.255 1.825-1.057T15.882 13h-2.146a2 2 0 0 1-.324.412 2 2 0 0 1-.412.324" clip-rule="evenodd"/><path d="M15.8 10.813a3.9 3.9 0 0 1-1.925-1.426 3.77 3.77 0 0 1-.737-2.275q0-.562.137-1.112.138-.55.425-1.013a.59.59 0 0 1 .538-.306.83.83 0 0 1 .625.256.6.6 0 0 1 .175.413.8.8 0 0 1-.113.463q-.175.3-.244.643a3.4 3.4 0 0 0-.068.669q0 .776.43 1.387.432.613 1.145.888a.9.9 0 0 1 .38.287.66.66 0 0 1 .145.413.76.76 0 0 1-.282.619.59.59 0 0 1-.63.094m2.713.012a.57.57 0 0 1-.62-.094.76.76 0 0 1-.28-.618q0-.225.15-.42a.96.96 0 0 1 .375-.293 2.45 2.45 0 0 0 1.143-.931q.432-.644.432-1.419 0-.987-.663-1.706a2.52 2.52 0 0 0-1.65-.819h-.087l.212.212q.175.175.163.382a.58.58 0 0 1-.188.381.54.54 0 0 1-.387.175.5.5 0 0 1-.375-.175L15.45 4.225a.7.7 0 0 1-.156-.25.9.9 0 0 1-.056-.3.7.7 0 0 1 .062-.275.8.8 0 0 1 .163-.237l1.3-1.313a.53.53 0 0 1 .38-.175q.207 0 .382.175a.52.52 0 0 1 .169.387.58.58 0 0 1-.169.388l-.387.413h.1q1.65 0 2.8 1.18a3.92 3.92 0 0 1 1.15 2.832q0 1.288-.738 2.313a4.04 4.04 0 0 1-1.937 1.462"/></g></svg>