<svg xmlns="http://www.w3.org/2000/svg" width="24" height="24" fill="none"><mask id="a" width="24" height="24" x="0" y="0" maskUnits="userSpaceOnUse" style="mask-type:alpha"><path fill="#D9D9D9" d="M0 0h24v24H0z"/></mask><g mask="url(#a)"><path fill="#000" d="m3.95 19-1.9-6.7q-.076-.3.063-.7.137-.4.587-.55L4 10.6V6q0-.824.588-1.412A1.93 1.93 0 0 1 6 4h3V2q0-.424.287-.712A.97.97 0 0 1 10 1h4q.424 0 .713.288Q15 1.575 15 2v2h3q.824 0 1.413.588Q20 5.175 20 6v4.6l1.3.45q.525.2.625.587.1.389.025.663l-1.9 6.7q-.9 0-1.687-.325a6.3 6.3 0 0 1-1.438-.825 1.7 1.7 0 0 0-.437-.238 1.4 1.4 0 0 0-.976 0 1.7 1.7 0 0 0-.437.238 6.4 6.4 0 0 1-1.425.825A4.2 4.2 0 0 1 12 19a4.2 4.2 0 0 1-1.65-.325 6.4 6.4 0 0 1-1.425-.825 1.7 1.7 0 0 0-.437-.238 1.4 1.4 0 0 0-.975 0 1.7 1.7 0 0 0-.438.238 6.3 6.3 0 0 1-1.437.825A4.4 4.4 0 0 1 3.95 19M3 23a.97.97 0 0 1-.712-.288A.97.97 0 0 1 2 22q0-.424.288-.712A.97.97 0 0 1 3 21h1q.874 0 1.725-.225a7 7 0 0 0 1.65-.675 1 1 0 0 1 .287-.113 1.5 1.5 0 0 1 .676 0 1 1 0 0 1 .287.113 7.3 7.3 0 0 0 1.65.637 7.1 7.1 0 0 0 3.45 0 7.3 7.3 0 0 0 1.65-.637 1 1 0 0 1 .287-.113 1.5 1.5 0 0 1 .675 0 1 1 0 0 1 .288.113q.8.45 1.65.675T20 21h1q.424 0 .712.288.288.287.288.712 0 .424-.288.712A.97.97 0 0 1 21 23h-1q-1.05 0-2.05-.25A8.7 8.7 0 0 1 16 22a8.7 8.7 0 0 1-1.963.75A8.47 8.47 0 0 1 8 22a8.7 8.7 0 0 1-1.95.75Q5.05 23 4 23zM6 9.95l5.375-1.75q.3-.1.625-.1t.625.1L18 9.95V6H6zM12 17q.524 0 .938-.175.412-.175.837-.5.525-.425 1.075-.625a3.196 3.196 0 0 1 2.263.013q.562.212 1.087.637.124.075.225.15.1.075.225.15l1.1-4L12 10.1l-7.8 2.55 1.15 3.95.225-.138q.1-.062.2-.137a4.1 4.1 0 0 1 1.137-.612 3.6 3.6 0 0 1 1.138-.188q.575 0 1.112.188.539.188 1.038.612.425.325.85.5T12 17"/></g></svg>